<svg width="19" height="18" viewBox="0 0 19 18" fill="none" xmlns="http://www.w3.org/2000/svg">
<path fill-rule="evenodd" clip-rule="evenodd" d="M14.9179 11.0502C14.9179 11.1128 14.9122 11.1734 14.9046 11.234C14.9122 11.1829 14.9179 11.1336 14.9255 11.0824C14.9084 11.1923 14.88 11.2984 14.8364 11.4007C14.8554 11.3553 14.8743 11.3098 14.8933 11.2643C14.8611 11.3363 14.8251 11.4064 14.7815 11.4727C14.7777 11.4784 14.7493 11.5239 14.7455 11.5239C14.7436 11.5239 14.8402 11.4083 14.7891 11.467C14.7626 11.4973 14.736 11.5295 14.7057 11.558C14.6792 11.5845 14.6508 11.6091 14.6243 11.6337C14.5883 11.6659 14.5333 11.6811 14.6716 11.5977C14.6584 11.6053 14.6451 11.6167 14.6318 11.6262C14.5636 11.6735 14.4898 11.7114 14.4121 11.7455C14.4576 11.7266 14.503 11.7076 14.5485 11.6887C14.4462 11.7304 14.3401 11.7607 14.2302 11.7777C14.2814 11.7701 14.3306 11.7645 14.3818 11.7569C14.2586 11.7739 14.1374 11.7739 14.0142 11.7569C14.0654 11.7645 14.1147 11.7701 14.1658 11.7777C14.0559 11.7607 13.9498 11.7323 13.8475 11.6887C13.893 11.7076 13.9385 11.7266 13.9839 11.7455C13.9119 11.7133 13.8419 11.6773 13.7755 11.6337C13.7699 11.63 13.7244 11.6015 13.7244 11.5977C13.7244 11.5958 13.84 11.6925 13.7812 11.6413C13.7509 11.6148 13.7187 11.5883 13.6903 11.558C13.6638 11.5314 13.6391 11.503 13.6145 11.4765C13.5823 11.4405 13.5672 11.3856 13.6505 11.5239C13.6429 11.5106 13.6316 11.4973 13.6221 11.4841C13.5747 11.4159 13.5368 11.342 13.5027 11.2643C13.5217 11.3098 13.5406 11.3553 13.5596 11.4007C13.5179 11.2984 13.4876 11.1923 13.4705 11.0824C13.4781 11.1336 13.4838 11.1829 13.4914 11.234C13.4743 11.1109 13.4743 10.9896 13.4914 10.8665C13.4838 10.9176 13.4781 10.9669 13.4705 11.018C13.4876 10.9082 13.516 10.8021 13.5596 10.6998C13.5406 10.7452 13.5217 10.7907 13.5027 10.8362C13.5349 10.7642 13.5709 10.6941 13.6145 10.6278C13.6183 10.6221 13.6467 10.5766 13.6505 10.5766C13.6524 10.5766 13.5558 10.6922 13.6069 10.6335C13.6335 10.6031 13.66 10.5709 13.6903 10.5425C13.7168 10.516 13.7452 10.4914 13.7718 10.4667C13.8078 10.4345 13.8627 10.4194 13.7244 10.5027C13.7377 10.4952 13.7509 10.4838 13.7642 10.4743C13.8324 10.427 13.9063 10.3891 13.9839 10.355C13.9385 10.3739 13.893 10.3929 13.8475 10.4118C13.9498 10.3701 14.0559 10.3398 14.1658 10.3228C14.1147 10.3303 14.0654 10.336 14.0142 10.3436C14.1374 10.3266 14.2586 10.3266 14.3818 10.3436C14.3306 10.336 14.2814 10.3303 14.2302 10.3228C14.3401 10.3398 14.4462 10.3682 14.5485 10.4118C14.503 10.3929 14.4576 10.3739 14.4121 10.355C14.4841 10.3872 14.5542 10.4232 14.6205 10.4667C14.6262 10.4705 14.6716 10.499 14.6716 10.5027C14.6716 10.5046 14.5561 10.408 14.6148 10.4592C14.6451 10.4857 14.6773 10.5122 14.7057 10.5425C14.7323 10.569 14.7569 10.5975 14.7815 10.624C14.8137 10.66 14.8289 10.7149 14.7455 10.5766C14.7531 10.5899 14.7645 10.6031 14.7739 10.6164C14.8213 10.6846 14.8592 10.7585 14.8933 10.8362C14.8743 10.7907 14.8554 10.7452 14.8364 10.6998C14.8781 10.8021 14.9084 10.9082 14.9255 11.018C14.9179 10.9669 14.9122 10.9176 14.9046 10.8665C14.9122 10.9271 14.916 10.9877 14.9179 11.0502C14.918 11.0544 16.0547 11.0557 16.0546 11.0502C16.0508 10.6827 15.9447 10.3019 15.7287 10.0026C15.49 9.67296 15.185 9.43994 14.8042 9.29596C14.1241 9.03831 13.2659 9.26754 12.8018 9.82831C12.5328 10.1561 12.3793 10.5217 12.3452 10.9442C12.3149 11.306 12.4172 11.6963 12.6048 12.0051C12.7885 12.3063 13.0632 12.5715 13.3853 12.7174C13.7737 12.8936 14.1753 12.9428 14.594 12.8614C15.4427 12.6965 16.0432 11.8952 16.0527 11.0483C16.0527 11.0483 14.9179 11.0475 14.9179 11.0502Z" fill="#0E47C2"/>
<path fill-rule="evenodd" clip-rule="evenodd" d="M4.89426 11.0502C4.89426 11.1128 4.88858 11.1734 4.881 11.234C4.88858 11.1829 4.89426 11.1336 4.90184 11.0824C4.88479 11.1923 4.85637 11.2984 4.8128 11.4007C4.83174 11.3553 4.85069 11.3098 4.86963 11.2643C4.83743 11.3363 4.80143 11.4064 4.75786 11.4727C4.75407 11.4784 4.72565 11.5239 4.72186 11.5239C4.71997 11.5239 4.81659 11.4083 4.76544 11.467C4.73891 11.4973 4.71239 11.5295 4.68208 11.558C4.65556 11.5845 4.62714 11.6091 4.60062 11.6337C4.56462 11.6659 4.50968 11.6811 4.64798 11.5977C4.63472 11.6053 4.62146 11.6167 4.6082 11.6262C4.54 11.6735 4.46611 11.7114 4.38844 11.7455C4.43391 11.7266 4.47937 11.7076 4.52484 11.6887C4.42254 11.7304 4.31645 11.7607 4.20657 11.7777C4.25772 11.7701 4.30698 11.7645 4.35813 11.7569C4.23499 11.7739 4.11374 11.7739 3.9906 11.7569C4.04175 11.7645 4.09101 11.7701 4.14216 11.7777C4.03228 11.7607 3.92619 11.7323 3.82389 11.6887C3.86935 11.7076 3.91482 11.7266 3.96029 11.7455C3.8883 11.7133 3.8182 11.6773 3.7519 11.6337C3.74621 11.63 3.70074 11.6015 3.70074 11.5977C3.70074 11.5958 3.81631 11.6925 3.75758 11.6413C3.72727 11.6148 3.69506 11.5883 3.66664 11.558C3.64012 11.5314 3.61549 11.503 3.59087 11.4765C3.55866 11.4405 3.5435 11.3856 3.62686 11.5239C3.61928 11.5106 3.60792 11.4973 3.59844 11.4841C3.55108 11.4159 3.51319 11.342 3.47909 11.2643C3.49804 11.3098 3.51698 11.3553 3.53593 11.4007C3.49425 11.2984 3.46394 11.1923 3.44689 11.0824C3.45446 11.1336 3.46015 11.1829 3.46773 11.234C3.45067 11.1109 3.45067 10.9896 3.46773 10.8665C3.46015 10.9176 3.45446 10.9669 3.44689 11.018C3.46394 10.9082 3.49235 10.8021 3.53593 10.6998C3.51698 10.7452 3.49804 10.7907 3.47909 10.8362C3.5113 10.7642 3.54729 10.6941 3.59087 10.6278C3.59465 10.6221 3.62307 10.5766 3.62686 10.5766C3.62876 10.5766 3.53214 10.6922 3.58329 10.6335C3.60981 10.6031 3.63633 10.5709 3.66664 10.5425C3.69317 10.516 3.72158 10.4914 3.74811 10.4667C3.7841 10.4345 3.83904 10.4194 3.70074 10.5027C3.71401 10.4952 3.72727 10.4838 3.74053 10.4743C3.80873 10.427 3.88261 10.3891 3.96029 10.355C3.91482 10.3739 3.86935 10.3929 3.82389 10.4118C3.92619 10.3701 4.03228 10.3398 4.14216 10.3228C4.09101 10.3303 4.04175 10.336 3.9906 10.3436C4.11374 10.3266 4.23499 10.3266 4.35813 10.3436C4.30698 10.336 4.25772 10.3303 4.20657 10.3228C4.31645 10.3398 4.42254 10.3682 4.52484 10.4118C4.47937 10.3929 4.43391 10.3739 4.38844 10.355C4.46043 10.3872 4.53052 10.4232 4.59683 10.4667C4.60251 10.4705 4.64798 10.499 4.64798 10.5027C4.64798 10.5046 4.53242 10.408 4.59115 10.4592C4.62146 10.4857 4.65366 10.5122 4.68208 10.5425C4.7086 10.569 4.73323 10.5975 4.75786 10.624C4.79007 10.66 4.80522 10.7149 4.72186 10.5766C4.72944 10.5899 4.74081 10.6031 4.75028 10.6164C4.79764 10.6846 4.83553 10.7585 4.86963 10.8362C4.85069 10.7907 4.83174 10.7452 4.8128 10.6998C4.85448 10.8021 4.88479 10.9082 4.90184 11.018C4.89426 10.9669 4.88858 10.9176 4.881 10.8665C4.88858 10.9271 4.89237 10.9877 4.89426 11.0502C4.89509 11.1154 6.03203 11.1388 6.03095 11.0502C6.02716 10.6827 5.92107 10.3019 5.7051 10.0026C5.46639 9.67296 5.16138 9.43994 4.78059 9.29596C4.10048 9.03831 3.24228 9.26754 2.77814 9.82831C2.50912 10.1561 2.35567 10.5217 2.32157 10.9442C2.29126 11.306 2.39356 11.6963 2.58111 12.0051C2.76488 12.3063 3.03957 12.5715 3.36163 12.7174C3.75 12.8936 4.15163 12.9428 4.57031 12.8614C5.41903 12.6965 6.01958 11.8952 6.02905 11.0483" fill="#0E47C2"/>
<path fill-rule="evenodd" clip-rule="evenodd" d="M17.0473 7.15478C17.3511 7.23814 17.6326 7.39821 17.8543 7.62504C18.1859 7.96225 18.3677 8.41693 18.3735 8.88865C18.3735 8.89266 18.3713 8.89645 18.3671 8.90001C18.3599 9.02444 18.3625 9.15059 18.3651 9.27647C18.3664 9.34123 18.3677 9.40591 18.3677 9.47025V13.1739C18.3677 13.4733 18.3014 13.7461 18.1764 14.0151C17.9813 14.4357 17.5967 14.7407 17.1704 14.9036C16.9146 15.0021 16.6276 15.0159 16.3451 15.0146C16.3452 15.2252 16.3445 15.4357 16.3438 15.6461C16.3432 15.8394 16.3426 16.033 16.3426 16.2259C16.3426 16.2904 16.343 16.3547 16.3434 16.4189C16.3442 16.5471 16.3451 16.675 16.3426 16.8038C16.3312 17.4649 15.8026 17.9897 15.1415 17.9935C14.9597 17.9947 14.777 17.9943 14.5941 17.9939C14.5025 17.9937 14.4109 17.9935 14.3193 17.9935C14.2542 17.9935 14.1875 17.9951 14.1199 17.9967C13.8922 18.0021 13.655 18.0077 13.4402 17.9537C13.0481 17.8533 12.7563 17.5521 12.6199 17.1808C12.5669 17.0406 12.5574 16.889 12.5574 16.7412V15.0097H5.82317C5.8233 15.2219 5.82261 15.4341 5.82192 15.6461C5.82129 15.8395 5.82066 16.0328 5.82066 16.2259C5.82066 16.2904 5.82108 16.3547 5.8215 16.4189C5.82234 16.5471 5.82318 16.675 5.82066 16.8038C5.80929 17.4649 5.28073 17.9897 4.61956 17.9935C4.43776 17.9947 4.25512 17.9943 4.0722 17.9939C3.98064 17.9937 3.889 17.9935 3.79736 17.9935C3.7323 17.9935 3.66556 17.9951 3.59796 17.9967C3.37031 18.0021 3.13306 18.0077 2.91833 17.9537C2.52617 17.8533 2.23442 17.5521 2.09802 17.1808C2.04498 17.0406 2.0355 16.889 2.0355 16.7412V15.0097H1.85364C1.36486 15.0097 0.900716 14.843 0.544555 14.5001C0.205445 14.1742 0.0159978 13.7158 0.000841988 13.2497C-0.000420995 13.2055 3.88962e-10 13.1613 0.000420996 13.1171C0.000631492 13.095 0.000841988 13.0729 0.000841988 13.0508V8.91896C0.000841988 8.61585 0.0709374 8.33357 0.205445 8.06077C0.426515 7.60871 0.850051 7.29022 1.32619 7.15762C1.41472 6.82243 1.50299 6.48724 1.59126 6.15205C1.69877 5.74381 1.80628 5.33556 1.91426 4.92731C2.0393 4.45179 2.16481 3.97579 2.29032 3.4998C2.41582 3.02382 2.54133 2.54785 2.66636 2.07234C2.68015 2.0193 2.6935 1.96597 2.70685 1.91259C2.7412 1.7753 2.77564 1.63767 2.81792 1.504C3.1002 0.617387 3.9224 0.00736739 4.85448 0.00168397C5.20432 -0.000841987 5.55417 0 5.90401 0.000841987C6.07894 0.00126298 6.25386 0.00168397 6.42878 0.00168397H13.3644C13.8059 0.00168397 14.2378 0.0736739 14.6224 0.308588C15.0562 0.573814 15.3669 0.977337 15.5374 1.45285C15.5658 1.53052 15.5867 1.61198 15.6075 1.69345C15.6482 1.8459 15.6885 1.99883 15.7287 2.15176L15.729 2.15297C15.7692 2.30559 15.8094 2.45822 15.85 2.61037C15.9649 3.04586 16.0794 3.481 16.1939 3.91595C16.3494 4.50654 16.5048 5.09676 16.6608 5.68699C16.7493 6.02517 16.8384 6.36277 16.9274 6.7001L16.928 6.70238L16.9285 6.70409C16.9681 6.85436 17.0078 7.00458 17.0473 7.15478ZM2.52104 7.0889H15.8537L15.8462 7.06049L14.6186 2.40577C14.601 2.34021 14.5846 2.27367 14.5681 2.20687C14.5296 2.05086 14.4907 1.89337 14.4364 1.74385C14.4051 1.67826 14.3689 1.61424 14.3287 1.55326C14.3216 1.54132 14.3136 1.53013 14.3059 1.51922L14.3035 1.51577C14.2783 1.48651 14.2527 1.45831 14.2245 1.43012C14.2075 1.41401 14.19 1.39838 14.1724 1.38275C14.1579 1.36982 14.1434 1.35688 14.1292 1.34368C14.1168 1.33483 14.1043 1.32625 14.0919 1.31834C14.0305 1.27883 13.9667 1.24384 13.9016 1.21249C13.8193 1.18333 13.7354 1.1608 13.6493 1.14442C13.6049 1.14053 13.5604 1.13837 13.516 1.13837C13.2925 1.1371 13.0699 1.13752 12.847 1.13795C12.7354 1.13816 12.6237 1.13837 12.5119 1.13837L5.00862 1.13834C4.90822 1.13821 4.80875 1.13808 4.70946 1.14633C4.62887 1.16196 4.55014 1.18396 4.47288 1.21155C4.40328 1.245 4.33536 1.2825 4.27098 1.32592C4.25904 1.33308 4.24786 1.341 4.23695 1.34871L4.23266 1.35175C4.20323 1.37672 4.17426 1.40214 4.14784 1.43012C4.12826 1.44969 4.11056 1.46989 4.09294 1.49C4.08394 1.50027 4.07492 1.51056 4.06573 1.52068L4.0612 1.52724C4.05242 1.53996 4.04391 1.55229 4.03607 1.56462C3.99734 1.62629 3.96296 1.69013 3.93211 1.75532C3.86818 1.93036 3.82375 2.11515 3.7799 2.29756C3.76087 2.37671 3.74195 2.45543 3.72158 2.5327C3.43931 3.60307 3.15703 4.67535 2.87476 5.74762C2.78382 6.09148 2.69335 6.43486 2.60289 6.77825L2.52104 7.0889ZM17.2367 8.88865C17.2367 8.83931 17.2335 8.7916 17.2284 8.74249C17.2283 8.74999 17.2215 8.73016 17.2104 8.69732C17.2052 8.68202 17.1991 8.6639 17.1922 8.64441C17.1671 8.59363 17.1395 8.54456 17.1079 8.4965C17.1079 8.4965 17.1043 8.49141 17.1008 8.48593C17.0961 8.48069 17.0915 8.47541 17.0869 8.47012C17.0723 8.45352 17.0577 8.43677 17.0416 8.42072C17.0284 8.4084 17.0146 8.39609 17.0009 8.38377C16.9941 8.37772 16.9874 8.37166 16.9807 8.36561C16.9783 8.36392 16.9758 8.36222 16.9734 8.36051C16.9677 8.35651 16.962 8.35252 16.9564 8.34873C16.9158 8.32168 16.8736 8.29783 16.8304 8.27665C16.7774 8.25815 16.7237 8.24314 16.6688 8.23163C16.6523 8.23046 16.6357 8.22951 16.6192 8.22881C16.5967 8.2299 16.5743 8.22947 16.552 8.22759C16.4273 8.22871 16.3035 8.22831 16.1793 8.2279C16.1151 8.22769 16.0509 8.22748 15.9864 8.22748H1.78165C1.77902 8.22748 1.77639 8.22746 1.77378 8.22743C1.75224 8.2283 1.73076 8.22946 1.70938 8.23098C1.65684 8.24189 1.60489 8.25601 1.55375 8.27333C1.50389 8.29806 1.45568 8.32526 1.40843 8.3563C1.40843 8.3563 1.40335 8.35997 1.39787 8.36344C1.39263 8.3681 1.38735 8.37272 1.38205 8.37736C1.36545 8.3919 1.34871 8.40656 1.33266 8.42261C1.32034 8.43587 1.30803 8.4496 1.29572 8.46333C1.28966 8.47009 1.28361 8.47684 1.27755 8.48354C1.27586 8.48596 1.27416 8.48839 1.27245 8.49081C1.26845 8.49649 1.26445 8.50218 1.26067 8.50786C1.23362 8.54843 1.20977 8.59058 1.18859 8.63382C1.16941 8.68877 1.15398 8.74448 1.1423 8.80152C1.13193 8.93388 1.13454 9.06916 1.13713 9.20334C1.13827 9.26296 1.13942 9.32238 1.13942 9.38121V12.8235C1.13942 12.8702 1.13865 12.9174 1.13788 12.9647C1.13606 13.0766 1.13422 13.1895 1.14247 13.3009C1.15344 13.3541 1.16771 13.4068 1.18527 13.4587C1.20999 13.5085 1.2372 13.5567 1.26824 13.604C1.26824 13.604 1.2719 13.6091 1.27538 13.6146C1.28003 13.6198 1.28465 13.6251 1.28929 13.6304C1.30383 13.647 1.3185 13.6637 1.33455 13.6798C1.34781 13.6921 1.36155 13.7044 1.37528 13.7167C1.38203 13.7228 1.38878 13.7288 1.39548 13.7349C1.3979 13.7366 1.40033 13.7383 1.40276 13.74C1.40844 13.744 1.41412 13.748 1.4198 13.7518C1.46037 13.7788 1.50253 13.8027 1.54577 13.8238C1.59875 13.8423 1.65244 13.8573 1.70735 13.8689C1.74423 13.8715 1.78132 13.873 1.81764 13.873H16.2118C16.2548 13.873 16.2981 13.8736 16.3416 13.8742C16.4501 13.8757 16.5596 13.8771 16.6668 13.8695C16.7193 13.8586 16.7713 13.8445 16.8224 13.8272C16.8723 13.8024 16.9205 13.7752 16.9677 13.7442C16.9677 13.7442 16.9728 13.7405 16.9783 13.737C16.9835 13.7324 16.9888 13.7278 16.9941 13.7231C17.0107 13.7086 17.0275 13.6939 17.0435 13.6779C17.0558 13.6646 17.0681 13.6509 17.0805 13.6371C17.0865 13.6304 17.0926 13.6236 17.0986 13.6169C17.1003 13.6145 17.102 13.6121 17.1037 13.6097C17.1077 13.604 17.1117 13.5983 17.1155 13.5926C17.1425 13.5521 17.1664 13.5099 17.1876 13.4667C17.2068 13.4115 17.2223 13.3555 17.234 13.2982C17.2442 13.1691 17.2416 13.0377 17.239 12.9071C17.2379 12.8487 17.2367 12.7904 17.2367 12.7325V8.88865ZM17.0189 13.7082C17.0197 13.7099 17.0102 13.7166 16.9991 13.7238C17.0104 13.7146 17.0189 13.7082 17.0189 13.7082ZM1.30424 13.6551C1.30253 13.656 1.29583 13.6465 1.28863 13.6354C1.29787 13.6466 1.30424 13.6551 1.30424 13.6551ZM1.35728 8.3923C1.35643 8.39059 1.36595 8.38389 1.37702 8.37669C1.36579 8.38593 1.35728 8.3923 1.35728 8.3923ZM17.0719 8.44534C17.0736 8.44449 17.0803 8.45401 17.0875 8.46508C17.0783 8.45385 17.0719 8.44534 17.0719 8.44534Z" fill="#0E47C2"/>
</svg>
