<svg width="17" height="15" viewBox="0 0 17 15" fill="none" xmlns="http://www.w3.org/2000/svg">
<path fill-rule="evenodd" clip-rule="evenodd" d="M13.5 7.5C13.5 7.05 13.8 6.75 14.25 6.75C14.7 6.75 15 7.05 15 7.5V12.75C15 14.025 14.025 15 12.75 15H2.25C0.975 15 0 14.025 0 12.75V2.25C0 0.975 0.975 0 2.25 0H10.5C10.95 0 11.25 0.3 11.25 0.75C11.25 1.2 10.95 1.5 10.5 1.5H2.25C1.8 1.5 1.5 1.8 1.5 2.25V12.75C1.5 13.2 1.8 13.5 2.25 13.5H12.75C13.2 13.5 13.5 13.2 13.5 12.75V7.5ZM8.025 9.525L16.275 1.275C16.575 0.975 16.575 0.525 16.275 0.225C15.975 -0.075 15.525 -0.075 15.225 0.225L7.5 7.95L5.775 6.225C5.475 5.925 5.025 5.925 4.725 6.225C4.425 6.525 4.425 6.975 4.725 7.275L6.975 9.525C7.125 9.675 7.275 9.75 7.5 9.75C7.725 9.75 7.875 9.675 8.025 9.525Z" fill="white"/>
</svg>
