<svg width="22" height="22" viewBox="0 0 22 22" fill="none" xmlns="http://www.w3.org/2000/svg">
<path fill-rule="evenodd" clip-rule="evenodd" d="M21.066 9.23585L12.1415 0.311321C11.934 0.103774 11.7264 0 11.4151 0H1.03774C0.415094 0 0 0.415094 0 1.03774V11.4151C0 11.7264 0.103774 11.934 0.311321 12.1415L9.23585 21.066C9.85849 21.6887 10.5849 22 11.4151 22C12.2453 22 13.0755 21.6887 13.5943 21.066L21.066 13.5943C22.3113 12.3491 22.3113 10.4811 21.066 9.23585ZM19.6128 12.1415L12.1411 19.6132C11.726 20.0283 11.1033 20.0283 10.6882 19.6132L2.07503 11V2.07547H10.9996L19.6128 10.6887C20.0279 11.1038 20.0279 11.7264 19.6128 12.1415ZM7.26395 6.22642C7.26395 5.9151 7.16017 5.70755 6.95263 5.5C6.84885 5.39623 6.74508 5.29245 6.64131 5.29245C6.22621 5.08491 5.81112 5.18868 5.4998 5.5C5.29225 5.70755 5.18848 5.9151 5.18848 6.22642C5.18848 6.33019 5.18848 6.53774 5.29225 6.64151C5.29225 6.74529 5.39602 6.84906 5.4998 6.95283C5.70734 7.16038 5.91489 7.26415 6.22621 7.26415C6.53753 7.26415 6.74508 7.16038 6.95263 6.95283C7.16017 6.74529 7.26395 6.53774 7.26395 6.22642Z" fill="#0056D3"/>
</svg>
