<svg width="14" height="14" viewBox="0 0 14 14" fill="none" xmlns="http://www.w3.org/2000/svg">
<path d="M3.17811 14V4.55422H0.177061V14H3.17811ZM1.67797 3.26379C2.72449 3.26379 3.3759 2.53846 3.3759 1.63205C3.3564 0.705193 2.72453 0 1.69783 0C0.671294 0 0 0.705207 0 1.63205C0 2.53851 0.651247 3.26379 1.65838 3.26379H1.67788H1.67797ZM4.83918 14H7.84023V8.72502C7.84023 8.44271 7.85973 8.16069 7.93898 7.95888C8.15593 7.39483 8.64972 6.81064 9.47874 6.81064C10.5647 6.81064 10.9991 7.67685 10.9991 8.94665V13.9999H14V8.58381C14 5.68244 12.5194 4.33246 10.5449 4.33246C8.92599 4.33246 8.21516 5.27917 7.82027 5.92397H7.8403V4.55403H4.83925C4.87863 5.44037 4.83925 13.9998 4.83925 13.9998L4.83918 14Z" fill="#0056D3"/>
</svg>
