<svg width="14" height="20" viewBox="0 0 14 20" fill="none" xmlns="http://www.w3.org/2000/svg">
<path fill-rule="evenodd" clip-rule="evenodd" d="M13.3333 6.65281C13.3333 2.99376 10.3333 0 6.66667 0C3 0 0 2.99376 0 6.65281C0 8.81497 1 10.7277 2.58333 11.8919L1.66667 19.0437C1.58333 19.3763 1.75 19.7089 2 19.8753C2.25 20.0416 2.58333 20.0416 2.91667 19.8753L6.66667 17.6299L10.4167 19.8753C10.5 19.9584 10.6667 19.9584 10.8333 19.9584C11 19.9584 11.1667 19.8753 11.25 19.7921C11.5 19.6258 11.6667 19.2931 11.5833 18.9605L10.6667 11.8919C12.3333 10.7277 13.3333 8.81497 13.3333 6.65281ZM1.66681 6.65281C1.66681 3.90853 3.91681 1.66321 6.66681 1.66321C9.41681 1.66321 11.6668 3.90853 11.6668 6.65281C11.6668 9.3971 9.41681 11.6424 6.66681 11.6424C3.91681 11.6424 1.66681 9.3971 1.66681 6.65281ZM7.08354 15.9667L9.75021 17.5467L9.16687 12.8066C8.41687 13.1393 7.58354 13.3056 6.66687 13.3056C5.75021 13.3056 4.91687 13.1393 4.16687 12.8066L3.58354 17.5467L6.25021 15.9667C6.50021 15.8004 6.83354 15.8004 7.08354 15.9667Z" fill="#0056D3"/>
</svg>
