<svg width="22" height="19" viewBox="0 0 22 19" fill="none" xmlns="http://www.w3.org/2000/svg">
<path fill-rule="evenodd" clip-rule="evenodd" d="M3.68142 4.58331C3.68142 2.01665 5.70611 0 8.28299 0C10.8599 0 12.8846 2.01665 12.8846 4.58331C12.8846 7.14996 10.8599 9.16661 8.28299 9.16661C5.70611 9.16661 3.68142 7.14996 3.68142 4.58331ZM16.5657 15.5832V17.4166C16.5657 17.9666 16.1975 18.3332 15.6454 18.3332C15.0932 18.3332 14.725 17.9666 14.725 17.4166V15.5832C14.725 14.0249 13.5286 12.8333 11.9641 12.8333H4.60158C3.03704 12.8333 1.84063 14.0249 1.84063 15.5832V17.4166C1.84063 17.9666 1.4725 18.3332 0.920315 18.3332C0.368126 18.3332 0 17.9666 0 17.4166V15.5832C0 13.0166 2.02469 10.9999 4.60158 10.9999H11.9641C14.541 10.9999 16.5657 13.0166 16.5657 15.5832ZM8.28285 7.33329C6.71831 7.33329 5.5219 6.14163 5.5219 4.58331C5.5219 3.02498 6.71831 1.83332 8.28285 1.83332C9.84738 1.83332 11.0438 3.02498 11.0438 4.58331C11.0438 6.14163 9.84738 7.33329 8.28285 7.33329ZM18.5905 11.1833C18.1303 11.0916 17.5781 11.3666 17.4861 11.825C17.3941 12.2833 17.6702 12.8333 18.1303 12.925C19.3267 13.2 20.155 14.3 20.155 15.5833V17.4166C20.155 17.9666 20.5232 18.3333 21.0753 18.3333C21.6275 18.3333 21.9957 17.9666 21.9957 17.4166V15.5833C22.0877 13.475 20.7072 11.6416 18.5905 11.1833ZM13.805 0.825004C13.9891 0.275008 14.4493 9.3025e-06 14.9094 0.183342C17.3943 0.733338 18.8668 3.29999 18.2225 5.86664C17.8544 7.51663 16.566 8.70829 14.9094 9.16662H14.7254C14.2652 9.16662 13.8971 8.89162 13.805 8.43329C13.621 7.97496 13.9891 7.42497 14.4493 7.3333C15.4616 7.0583 16.1979 6.32497 16.474 5.31664C16.8421 3.75832 15.9218 2.29166 14.4493 1.925C13.9891 1.83333 13.713 1.28334 13.805 0.825004Z" fill="#0056D3"/>
</svg>
