<svg width="32" height="38" viewBox="0 0 32 38" fill="none" xmlns="http://www.w3.org/2000/svg">
<path fill-rule="evenodd" clip-rule="evenodd" d="M15.2855 0C19.3333 0.025784 23.2334 1.54234 26.258 4.26658C29.5347 7.22078 31.3911 11.4646 31.35 15.9071C31.35 20.3324 29.64 24.6615 26.3055 28.7646C23.5077 32.1894 20.102 34.8157 17.8457 36.5522C17.29 36.9658 16.834 37.3266 16.4207 37.6537C16.2629 37.7857 16.0927 37.9017 15.9125 38C15.7338 37.8938 15.5638 37.7731 15.4043 37.6392C15.1983 37.4731 14.9917 37.3057 14.7787 37.1331C14.3876 36.8161 13.9748 36.4816 13.5042 36.1048C8.78275 32.3337 0 25.3109 0 16.5035C0 10.2841 2.73125 6.39747 5.02075 4.23291C7.79841 1.57043 11.4613 0.0599541 15.2855 0ZM14.6643 29.5636L15.8413 30.4L16.8823 29.5684C17.0124 29.4667 17.1471 29.362 17.2857 29.2543C20.5877 26.6875 26.1246 22.3835 26.1246 15.6709C26.1506 12.7593 24.9095 9.98732 22.739 8.10928C20.7159 6.26891 18.1099 5.244 15.4052 5.225C12.8673 5.25166 10.432 6.25545 8.58244 8.03718C7.04908 9.50336 5.225 12.0559 5.225 16.2814C5.225 22.2904 14.6643 29.5636 14.6643 29.5636Z" fill="url(#paint0_linear)"/>
<defs>
<linearGradient id="paint0_linear" x1="42.8079" y1="3.26988" x2="0.195045" y2="-12.9376" gradientUnits="userSpaceOnUse">
<stop offset="0.11" stop-color="#E6C73E"/>
<stop offset="0.24" stop-color="#C94B36"/>
<stop offset="0.26" stop-color="#C54A41"/>
<stop offset="0.32" stop-color="#B64669"/>
<stop offset="0.36" stop-color="#AC4481"/>
<stop offset="0.39" stop-color="#A9438A"/>
<stop offset="0.67" stop-color="#5EA4B7"/>
<stop offset="0.89" stop-color="#5EA362"/>
<stop offset="1" stop-color="#5EA4B7"/>
</linearGradient>
</defs>
</svg>
