<svg width="22" height="17" viewBox="0 0 22 17" fill="none" xmlns="http://www.w3.org/2000/svg">
<path fill-rule="evenodd" clip-rule="evenodd" d="M11 0C17.8894 0 21.7474 7.51667 21.9311 7.88333C22.023 8.06667 22.023 8.43333 21.9311 8.61667C21.7474 8.98333 17.8894 16.5 11 16.5C4.51538 16.5 0.716368 9.84056 0.139184 8.82879C0.10316 8.76564 0.0796863 8.72449 0.0688935 8.70833C-0.0229645 8.43333 -0.0229645 8.15833 0.0688935 7.88333C0.25261 7.51667 4.11065 0 11 0ZM1.90614 8.25C2.82472 9.71667 6.03975 14.6667 11.0001 14.6667C15.9604 14.6667 19.1755 9.71667 20.094 8.25C19.1755 6.78333 15.9604 1.83333 11.0001 1.83333C6.03975 1.83333 2.73286 6.78333 1.90614 8.25ZM10.9999 4.58333C8.97902 4.58333 7.32557 6.23333 7.32557 8.25C7.32557 10.2667 8.97902 11.9167 10.9999 11.9167C13.0208 11.9167 14.6742 10.2667 14.6742 8.25C14.6742 6.23333 13.0208 4.58333 10.9999 4.58333ZM9.16309 8.25C9.16309 9.25833 9.98981 10.0833 11.0002 10.0833C12.0107 10.0833 12.8374 9.25833 12.8374 8.25C12.8374 7.24167 12.0107 6.41667 11.0002 6.41667C9.98981 6.41667 9.16309 7.24167 9.16309 8.25Z" fill="#0056D3"/>
</svg>
